<svg width="170" height="170" viewBox="0 0 170 170" fill="none" xmlns="http://www.w3.org/2000/svg">
<path d="M85 26.4385C49.72 26.4385 25 52.8385 25 84.9985C25 117.638 49.72 143.559 85 143.559C120.28 143.559 145 117.638 145 84.9985C145 52.8385 120.28 26.4385 85 26.4385ZM46.6 105.398C46.36 103.478 46.36 101.798 46.6 99.3985C46.6 98.9185 46.6 96.9985 46.6 96.9985C46.84 94.8385 46.84 93.1585 46.84 91.7185C46.84 90.5185 46.6 89.3185 46.6 88.5985L46.36 88.1185V87.3985C45.4 76.3585 46.36 66.9985 50.2 59.7985C57.64 44.6785 74.92 42.2785 84.52 42.2785H85.48C98.68 42.2785 109.24 45.8785 115.48 53.0785C122.44 60.7585 125.08 72.7585 123.64 87.3985V88.1185C123.4 89.0785 123.16 90.2785 123.16 91.7185C123.16 93.3985 123.16 95.0785 123.4 96.9985V99.3985C123.64 102.038 123.88 103.718 123.4 105.638C122.44 112.358 118.36 117.158 111.16 120.758C103 124.358 92.92 125.078 85.72 125.078H84.04C76.84 125.078 67 124.118 58.6 120.758C51.64 117.398 47.56 112.358 46.6 105.398ZM116.44 92.1985C116.44 87.1585 114.52 83.5585 111.88 81.6385C112.12 82.5985 112.12 84.0385 112.12 84.9985C112.12 92.9185 109.24 100.358 104.2 105.638C110.68 105.638 116.44 102.518 116.44 92.1985ZM57.88 81.6385C55.24 83.5585 53.56 87.1585 53.56 92.1985C53.56 102.278 59.08 105.638 65.8 105.638C60.76 100.358 57.88 92.6785 57.88 84.9985C57.64 84.0385 57.64 82.5985 57.88 81.6385Z" fill="white"/>
<path d="M76.5998 93.1592C76.5998 100.599 72.5198 105.639 66.5198 106.359H65.5598C58.5998 106.359 52.8398 102.999 52.8398 92.4392C52.8398 86.4392 54.9998 82.8392 58.3598 80.9192C60.2798 79.7192 62.6798 78.9992 65.0798 78.9992C72.5198 78.7592 76.5998 85.7192 76.5998 93.1592Z" fill="white"/>
<path d="M117.4 92.4388C117.4 102.999 111.64 106.359 104.68 106.359C104.2 106.359 103.72 106.359 103.48 106.119C97.2396 105.639 93.6396 100.359 93.6396 93.1588C93.6396 85.4788 97.7197 78.7588 105.16 78.7588C107.8 78.7588 109.72 79.4788 111.64 80.6788C115 82.5988 117.4 86.4388 117.4 92.4388Z" fill="white"/>
</svg>
