<svg width="80" height="82" viewBox="0 0 80 82" fill="none" xmlns="http://www.w3.org/2000/svg">
<g id="Group 1362789555">
<path id="Star 13" d="M35.8908 3.32908C38.4398 1.88433 41.5602 1.88433 44.1092 3.32908L57.4 10.8623L70.5694 18.6059C73.0951 20.091 74.6553 22.7933 74.6786 25.7232L74.8 41L74.6786 56.2768C74.6553 59.2066 73.0951 61.909 70.5694 63.3941L57.4 71.1377L44.1092 78.6709C41.5602 80.1157 38.4398 80.1157 35.8908 78.6709L22.6 71.1377L9.43061 63.3941C6.90494 61.909 5.34473 59.2067 5.32144 56.2768L5.2 41L5.32144 25.7232C5.34473 22.7933 6.90493 20.091 9.43061 18.6059L22.6 10.8623L35.8908 3.32908Z" fill="url(#paint0_linear_1_6199)" stroke="url(#paint1_linear_1_6199)" stroke-width="2.5"/>
<g id="Mask group">
<mask id="mask0_1_6199" style="mask-type:alpha" maskUnits="userSpaceOnUse" x="8" y="6" width="64" height="70">
<path id="Star 12" d="M35.8908 7.32908C38.4398 5.88433 41.5602 5.88433 44.1092 7.32908L55.66 13.8761L67.1053 20.6059C69.631 22.091 71.1912 24.7933 71.2145 27.7232L71.32 41L71.2145 54.2768C71.1912 57.2067 69.631 59.909 67.1053 61.3941L55.66 68.1239L44.1092 74.6709C41.5602 76.1157 38.4398 76.1157 35.8908 74.6709L24.34 68.1239L12.8947 61.3941C10.369 59.909 8.80883 57.2067 8.78554 54.2768L8.68 41L8.78554 27.7232C8.80883 24.7933 10.369 22.091 12.8947 20.6059L24.34 13.8761L35.8908 7.32908Z" fill="#4EC9FF"/>
</mask>
<g mask="url(#mask0_1_6199)">
<path id="Star 13_2" d="M35.691 -2.26907C38.24 -3.71382 41.3604 -3.71382 43.9094 -2.26907L58.7662 6.15178L73.4873 14.8078C76.013 16.2928 77.5732 18.9952 77.5965 21.925L77.7322 39.0019L77.5965 56.0787C77.5732 59.0085 76.013 61.7109 73.4873 63.196L58.7662 71.8519L43.9094 80.2728C41.3604 81.7175 38.24 81.7175 35.691 80.2728L20.8342 71.8519L6.1131 63.196C3.58743 61.7109 2.02723 59.0085 2.00394 56.0787L1.86819 39.0019L2.00394 21.925C2.02723 18.9952 3.58744 16.2928 6.11311 14.8078L20.8342 6.15178L35.691 -2.26907Z" fill="#FAD8B2"/>
<g id="Layer_4">
<path id="Vector" d="M39.7506 64.3634C52.6492 64.3634 63.1056 53.907 63.1056 41.0084C63.1056 28.1097 52.6492 17.6533 39.7506 17.6533C26.8519 17.6533 16.3955 28.1097 16.3955 41.0084C16.3955 53.907 26.8519 64.3634 39.7506 64.3634Z" fill="#FAD8B2"/>
<g id="Group">
<path id="Vector_2" d="M39.7504 13.8618C23.4019 13.8618 11.9468 26.0954 11.9468 40.9982C11.9468 56.1234 23.4019 68.1345 39.7504 68.1345C56.099 68.1345 67.5541 56.1234 67.5541 40.9982C67.5541 26.0954 56.099 13.8618 39.7504 13.8618ZM21.9561 50.4514C21.8449 49.5617 21.8449 48.7832 21.9561 47.6711C21.9561 47.4486 21.9561 46.5589 21.9561 46.5589C22.0673 45.558 22.0673 44.7795 22.0673 44.1122C22.0673 43.5561 21.9561 43 21.9561 42.6664L21.8449 42.444V42.1103C21.4 36.9945 21.8449 32.6571 23.6243 29.3206C27.072 22.3141 35.0794 21.202 39.528 21.202H39.9729C46.0897 21.202 50.9831 22.8702 53.8747 26.2066C57.0999 29.7655 58.3233 35.3262 57.656 42.1103V42.444C57.5448 42.8888 57.4335 43.4449 57.4335 44.1122C57.4335 44.8907 57.4335 45.6692 57.5448 46.5589V47.6711C57.656 48.8944 57.7672 49.6729 57.5448 50.5626C57.0999 53.6766 55.2093 55.9009 51.8728 57.5692C48.0915 59.2374 43.4205 59.571 40.0841 59.571H39.3056C35.9691 59.571 31.4093 59.1262 27.5168 57.5692C24.2916 56.0122 22.4009 53.6766 21.9561 50.4514ZM54.3195 44.3346C54.3195 41.9991 53.4298 40.3309 52.2065 39.4412C52.3177 39.886 52.3177 40.5533 52.3177 40.9982C52.3177 44.6683 50.9831 48.1159 48.6476 50.5626C51.6504 50.5626 54.3195 49.1168 54.3195 44.3346ZM27.1832 39.4412C25.9598 40.3309 25.1813 41.9991 25.1813 44.3346C25.1813 49.0056 27.7392 50.5626 30.8533 50.5626C28.5178 48.1159 27.1832 44.557 27.1832 40.9982C27.072 40.5533 27.072 39.886 27.1832 39.4412Z" fill="#FFBD5D"/>
<g id="Group_2">
<g id="Group_3">
<path id="Vector_3" d="M35.8574 44.7817C35.8574 48.2294 33.9668 50.5649 31.1864 50.8985H30.7415C27.5163 50.8985 24.8472 49.3415 24.8472 44.4481C24.8472 41.6677 25.8481 39.9995 27.4051 39.1098C28.2948 38.5537 29.407 38.2201 30.5191 38.2201C33.9668 38.1089 35.8574 41.3341 35.8574 44.7817Z" fill="#FFBD5D"/>
</g>
<g id="Group_4">
<path id="Vector_4" d="M54.7642 44.4476C54.7642 49.3411 52.095 50.8981 48.8698 50.8981C48.6473 50.8981 48.4249 50.8981 48.3137 50.7869C45.4221 50.5644 43.7539 48.1177 43.7539 44.7813C43.7539 41.2224 45.6446 38.1084 49.0922 38.1084C50.3156 38.1084 51.2053 38.442 52.095 38.9981C53.652 39.8878 54.7642 41.6673 54.7642 44.4476Z" fill="#FFBD5D"/>
</g>
</g>
</g>
</g>
</g>
</g>
<path id="Star 10" d="M57.7168 10.3236L57.7168 10.3235L57.7082 10.3186L44.4174 2.78534C41.6772 1.23224 38.3228 1.23224 35.5826 2.78534L22.2918 10.3186L22.2918 10.3185L22.2832 10.3236L9.11381 18.0671C6.39872 19.6636 4.72149 22.5686 4.69646 25.7182L4.57502 40.995L4.57494 40.995L4.57502 41.005L4.69646 56.2818C4.72149 59.4314 6.39872 62.3364 9.11382 63.9329L22.2832 71.6764L22.2832 71.6765L22.2918 71.6814L35.5826 79.2147C38.3228 80.7678 41.6772 80.7678 44.4174 79.2147L57.7082 71.6814L57.7082 71.6815L57.7168 71.6764L70.8862 63.9329C73.6013 62.3364 75.2785 59.4314 75.3035 56.2818L75.4251 41.005L75.425 40.995L75.3035 25.7182C75.2785 22.5686 73.6013 19.6636 70.8862 18.0671L57.7168 10.3236Z" stroke="url(#paint2_linear_1_6199)" stroke-width="1.25"/>
</g>
<defs>
<linearGradient id="paint0_linear_1_6199" x1="40" y1="2.6" x2="40" y2="81" gradientUnits="userSpaceOnUse">
<stop stop-color="#FFAB05"/>
<stop offset="1" stop-color="#F1B10E"/>
</linearGradient>
<linearGradient id="paint1_linear_1_6199" x1="40" y1="1" x2="40" y2="81" gradientUnits="userSpaceOnUse">
<stop stop-color="#FFBA57"/>
<stop offset="1" stop-color="#FFCA7D"/>
</linearGradient>
<linearGradient id="paint2_linear_1_6199" x1="40" y1="1" x2="40" y2="81" gradientUnits="userSpaceOnUse">
<stop stop-color="#FFE6C9"/>
<stop offset="1" stop-color="#D67717"/>
</linearGradient>
</defs>
</svg>
