<svg width="179" height="22" viewBox="0 0 179 22" fill="none" xmlns="http://www.w3.org/2000/svg">
<path d="M110.928 8.11133H113.22V16.8405H110.928V8.11133Z" fill="#424141"/>
<path d="M121.385 16.8405L117.267 12.7089V16.8405H114.975V8.11133H115.906L120.035 12.2315V8.11133H122.327V16.8405H121.385Z" fill="#424141"/>
<path d="M123.898 8.09961H130.773V10.3806H128.458V16.8401H126.167V10.3806H123.898V8.09961Z" fill="#424141"/>
<path d="M132.354 8.11133H137.775V10.0087H134.646V11.4288H137.414V13.361H134.646V14.9672H137.775V16.8411H132.354V8.112V8.11133Z" fill="#424141"/>
<path d="M144.475 16.8405L143.126 14.5246H141.707V16.8405H139.415V8.11133H143.09C144.858 8.11133 146.301 9.5548 146.301 11.3237C146.301 12.255 145.894 13.0925 145.266 13.675L147.115 16.8411H144.475L144.475 16.8405ZM141.707 12.5455H143.126C143.824 12.5455 144.383 11.9985 144.383 11.3002C144.383 10.6019 143.825 10.0435 143.126 10.0435H141.707V12.5462V12.5455Z" fill="#424141"/>
<path d="M148.244 8.11133H150.536V14.536H153.677V16.8405H148.244V8.11133Z" fill="#424141"/>
<path d="M154.735 16.8405L158.807 8.11133H159.842L163.948 16.8405H161.657L161.121 15.6996H157.55L157.027 16.8405H154.735ZM158.446 13.7681H160.226L159.342 11.8479L158.446 13.7681Z" fill="#424141"/>
<path d="M170.205 10.9979C169.845 10.637 169.333 10.4275 168.74 10.4275C167.553 10.4275 166.692 11.2885 166.692 12.4762C166.692 13.6639 167.553 14.5249 168.74 14.5249C169.333 14.5249 169.845 14.3154 170.205 13.9431L171.834 15.5493C171.043 16.3406 169.95 16.8414 168.74 16.8414C166.332 16.8414 164.378 14.8858 164.378 12.4769C164.378 10.068 166.332 8.1123 168.74 8.1123C169.938 8.1123 171.02 8.58967 171.81 9.38104L170.205 10.9986V10.9979Z" fill="#424141"/>
<path d="M173.579 8.11133H179V10.0087H175.871V11.4288H178.639V13.361H175.871V14.9672H179V16.8411H173.579V8.112V8.11133Z" fill="#424141"/>
<path d="M91.3339 13.4935C90.3021 12.4752 90.2907 10.8067 91.3085 9.77434C92.3262 8.74195 93.9937 8.73057 95.0255 9.7489L100.005 14.6638L102.537 12.3158L97.4157 7.32392C95.0476 4.98664 91.2201 5.01275 88.8842 7.38217C86.5603 9.73953 86.5743 13.541 88.9056 15.8817L91.6477 18.9112L94.171 16.6248L91.3995 13.5625C91.378 13.539 91.356 13.5156 91.3332 13.4928L91.3339 13.4935Z" fill="#424141"/>
<path d="M106.436 15.6596C107.224 14.421 107.638 12.9802 107.622 11.4778C107.6 9.43045 106.783 7.51429 105.321 6.0822C103.879 4.66885 101.98 3.89355 99.9642 3.89355C99.9368 3.89355 99.9093 3.89355 99.8819 3.89355L98.1221 3.9123L98.1522 6.78854L99.912 6.76979C101.192 6.75372 102.397 7.2418 103.311 8.13694C104.224 9.03208 104.734 10.2292 104.748 11.5079C104.761 12.7867 104.276 13.9945 103.381 14.9084C102.487 15.8223 101.29 16.3331 100.012 16.3465C99.9957 16.3465 99.9789 16.3465 99.9615 16.3465C98.5838 16.3465 97.285 15.6188 96.3743 14.5804L94.2036 16.613C95.6617 18.2747 97.7561 19.2228 99.9615 19.2228C99.9883 19.2228 100.016 19.2228 100.042 19.2228C101.155 19.2114 102.229 18.9637 103.207 18.5057L107.175 19.3306L106.436 15.6603V15.6596Z" fill="#424141"/>
<path d="M1.4588 16.0579C1.31986 16.0579 1.21181 16.0193 1.13462 15.9421C1.05744 15.8572 1.01884 15.7414 1.01884 15.5948V8.19659C1.01884 7.76435 1.23496 7.54824 1.6672 7.54824H3.99433C5.35278 7.54824 6.38706 7.81066 7.09717 8.33552C7.80727 8.86038 8.16232 9.62451 8.16232 10.6279C8.16232 11.6313 7.80727 12.3955 7.09717 12.9203C6.38706 13.4452 5.35278 13.7076 3.99433 13.7076H1.88717V15.5948C1.88717 15.7414 1.84858 15.8572 1.7714 15.9421C1.69421 16.0193 1.59001 16.0579 1.4588 16.0579ZM4.00591 12.9319C5.0865 12.9319 5.90466 12.7389 6.46039 12.353C7.02384 11.9594 7.30557 11.3843 7.30557 10.6279C7.30557 9.87151 7.02384 9.30034 6.46039 8.91441C5.90466 8.52077 5.0865 8.32394 4.00591 8.32394H1.88717V12.9319H4.00591ZM12.4462 16.1158C11.7438 16.1158 11.1109 15.9614 10.5474 15.6527C9.9917 15.3362 9.55174 14.9078 9.22757 14.3675C8.91111 13.8195 8.75288 13.2059 8.75288 12.5267C8.75288 11.8474 8.91111 11.2377 9.22757 10.6974C9.55174 10.1494 9.9917 9.72099 10.5474 9.41225C11.1109 9.0958 11.7438 8.93757 12.4462 8.93757C13.1486 8.93757 13.7815 9.0958 14.3449 9.41225C14.9084 9.72099 15.3483 10.1494 15.6648 10.6974C15.9813 11.2377 16.1395 11.8474 16.1395 12.5267C16.1395 13.2059 15.9813 13.8195 15.6648 14.3675C15.3483 14.9078 14.9084 15.3362 14.3449 15.6527C13.7815 15.9614 13.1486 16.1158 12.4462 16.1158ZM12.4462 15.3632C12.9942 15.3632 13.4882 15.2436 13.9281 15.0043C14.3681 14.7573 14.7116 14.4177 14.9586 13.9855C15.2055 13.5532 15.329 13.067 15.329 12.5267C15.329 11.9864 15.2055 11.5001 14.9586 11.0679C14.7116 10.6356 14.3681 10.2999 13.9281 10.0606C13.4882 9.81362 12.9942 9.69012 12.4462 9.69012C11.8982 9.69012 11.4042 9.81362 10.9642 10.0606C10.5243 10.2999 10.1808 10.6356 9.93381 11.0679C9.68682 11.5001 9.56332 11.9864 9.56332 12.5267C9.56332 13.067 9.68682 13.5532 9.93381 13.9855C10.1808 14.4177 10.5243 14.7573 10.9642 15.0043C11.4042 15.2436 11.8982 15.3632 12.4462 15.3632ZM19.2626 16.0579C19.0002 16.0579 18.8265 15.9228 18.7416 15.6527L16.9123 9.58592C16.8891 9.51645 16.8776 9.45471 16.8776 9.40068C16.8776 9.2849 16.9162 9.18842 16.9933 9.11123C17.0705 9.03405 17.167 8.99546 17.2828 8.99546C17.4835 8.99546 17.6185 9.10737 17.688 9.33121L19.2973 14.6338H19.3205L21.0456 9.7017C21.0996 9.55505 21.1652 9.44699 21.2424 9.37752C21.3273 9.30805 21.4353 9.27332 21.5666 9.27332C21.6978 9.27332 21.802 9.30805 21.8792 9.37752C21.9641 9.44699 22.0335 9.55505 22.0876 9.7017L23.8126 14.6338H23.8358L25.4451 9.33121C25.5146 9.10737 25.6497 8.99546 25.8503 8.99546C25.9661 8.99546 26.0626 9.03405 26.1398 9.11123C26.217 9.18842 26.2556 9.2849 26.2556 9.40068C26.2556 9.45471 26.244 9.51645 26.2208 9.58592L24.3915 15.6527C24.3066 15.9228 24.133 16.0579 23.8705 16.0579C23.6235 16.0579 23.446 15.9228 23.338 15.6527L21.5781 10.6279H21.555L19.7952 15.6527C19.6871 15.9228 19.5096 16.0579 19.2626 16.0579ZM33.7171 14.4023C33.8251 14.4023 33.9139 14.4409 33.9833 14.518C34.0528 14.5875 34.0875 14.6763 34.0875 14.7843C34.0875 14.8924 34.0412 14.9927 33.9486 15.0854C33.6399 15.3941 33.2115 15.6449 32.6635 15.8379C32.1155 16.0232 31.5404 16.1158 30.9384 16.1158C30.1665 16.1158 29.4796 15.9653 28.8776 15.6642C28.2755 15.3632 27.8085 14.9426 27.4766 14.4023C27.1448 13.8543 26.9788 13.2291 26.9788 12.5267C26.9788 11.8243 27.1448 11.2029 27.4766 10.6627C27.8085 10.1146 28.2755 9.69012 28.8776 9.3891C29.4796 9.08808 30.1665 8.93757 30.9384 8.93757C31.6176 8.93757 32.2158 9.08036 32.733 9.36594C33.2578 9.64381 33.6437 10.0297 33.8907 10.5237C33.9525 10.6318 33.9833 10.7321 33.9833 10.8247C33.9833 10.9945 33.8946 11.1335 33.7171 11.2415L28.4029 14.3212C28.6807 14.6531 29.0319 14.9117 29.4564 15.0969C29.8887 15.2745 30.3749 15.3632 30.9152 15.3632C31.4092 15.3632 31.8762 15.2899 32.3162 15.1432C32.7561 14.9966 33.1073 14.8075 33.3697 14.5759C33.4469 14.5142 33.5087 14.4717 33.555 14.4486C33.6013 14.4177 33.6553 14.4023 33.7171 14.4023ZM30.8689 9.66696C30.2592 9.66696 29.7227 9.7866 29.2596 10.0259C28.7965 10.2651 28.4337 10.6009 28.1713 11.0331C27.9166 11.4577 27.7892 11.9516 27.7892 12.5151C27.7892 12.9319 27.8587 13.3101 27.9976 13.6497L33.0687 10.709C32.8449 10.3693 32.5477 10.1108 32.1772 9.93325C31.8067 9.75573 31.3706 9.66696 30.8689 9.66696ZM40.2448 8.93757C40.4069 8.93757 40.5343 8.97616 40.6269 9.05334C40.7195 9.12281 40.7658 9.21929 40.7658 9.34279C40.7658 9.46628 40.7272 9.56662 40.6501 9.64381C40.5806 9.71328 40.4841 9.74801 40.3606 9.74801C40.3143 9.74801 40.2564 9.74415 40.1869 9.73643C40.1175 9.72871 40.0326 9.72485 39.9322 9.72485C39.2453 9.72485 38.6471 9.84063 38.1377 10.0722C37.636 10.296 37.2501 10.6202 36.9799 11.0447C36.7098 11.4615 36.5747 11.9516 36.5747 12.5151V15.5948C36.5747 15.7337 36.5361 15.8456 36.4589 15.9305C36.3817 16.0154 36.2775 16.0579 36.1463 16.0579C36.0228 16.0579 35.9225 16.0154 35.8453 15.9305C35.7681 15.8456 35.7295 15.7337 35.7295 15.5948V9.45857C35.7295 9.31963 35.7681 9.20771 35.8453 9.12281C35.9225 9.03791 36.0228 8.99546 36.1463 8.99546C36.2775 8.99546 36.3817 9.03791 36.4589 9.12281C36.5361 9.20771 36.5747 9.31963 36.5747 9.45857V10.3848H36.5978C36.868 9.94483 37.3311 9.59364 37.9872 9.33121C38.651 9.06878 39.4035 8.93757 40.2448 8.93757ZM47.2734 14.4023C47.3815 14.4023 47.4703 14.4409 47.5397 14.518C47.6092 14.5875 47.6439 14.6763 47.6439 14.7843C47.6439 14.8924 47.5976 14.9927 47.505 15.0854C47.1963 15.3941 46.7679 15.6449 46.2199 15.8379C45.6718 16.0232 45.0968 16.1158 44.4948 16.1158C43.7229 16.1158 43.036 15.9653 42.4339 15.6642C41.8319 15.3632 41.3649 14.9426 41.033 14.4023C40.7011 13.8543 40.5352 13.2291 40.5352 12.5267C40.5352 11.8243 40.7011 11.2029 41.033 10.6627C41.3649 10.1146 41.8319 9.69012 42.4339 9.3891C43.036 9.08808 43.7229 8.93757 44.4948 8.93757C45.174 8.93757 45.7722 9.08036 46.2893 9.36594C46.8142 9.64381 47.2001 10.0297 47.4471 10.5237C47.5089 10.6318 47.5397 10.7321 47.5397 10.8247C47.5397 10.9945 47.451 11.1335 47.2734 11.2415L41.9592 14.3212C42.2371 14.6531 42.5883 14.9117 43.0128 15.0969C43.4451 15.2745 43.9313 15.3632 44.4716 15.3632C44.9656 15.3632 45.4326 15.2899 45.8725 15.1432C46.3125 14.9966 46.6637 14.8075 46.9261 14.5759C47.0033 14.5142 47.065 14.4717 47.1114 14.4486C47.1577 14.4177 47.2117 14.4023 47.2734 14.4023ZM44.4253 9.66696C43.8155 9.66696 43.2791 9.7866 42.816 10.0259C42.3529 10.2651 41.9901 10.6009 41.7277 11.0331C41.473 11.4577 41.3456 11.9516 41.3456 12.5151C41.3456 12.9319 41.4151 13.3101 41.554 13.6497L46.6251 10.709C46.4012 10.3693 46.1041 10.1108 45.7336 9.93325C45.3631 9.75573 44.927 9.66696 44.4253 9.66696ZM55.6803 7.14301C55.8116 7.14301 55.9119 7.18547 55.9814 7.27037C56.0585 7.35527 56.0971 7.46719 56.0971 7.60612V15.5948C56.0971 15.7337 56.0585 15.8456 55.9814 15.9305C55.9119 16.0154 55.8116 16.0579 55.6803 16.0579C55.5491 16.0579 55.4449 16.0154 55.3677 15.9305C55.2983 15.8456 55.2635 15.7337 55.2635 15.5948V14.6686H55.2404C54.9471 15.1239 54.5457 15.479 54.0363 15.7337C53.5269 15.9884 52.9634 16.1158 52.3459 16.1158C51.6513 16.1158 51.0261 15.9614 50.4703 15.6527C49.9146 15.3439 49.4785 14.9155 49.1621 14.3675C48.8456 13.8195 48.6874 13.2059 48.6874 12.5267C48.6874 11.8474 48.8456 11.2338 49.1621 10.6858C49.4785 10.1378 49.9146 9.70942 50.4703 9.40068C51.0261 9.09194 51.6513 8.93757 52.3459 8.93757C52.9634 8.93757 53.5269 9.06492 54.0363 9.31963C54.5457 9.57434 54.9471 9.92939 55.2404 10.3848H55.2635V7.60612C55.2635 7.46719 55.2983 7.35527 55.3677 7.27037C55.4449 7.18547 55.5491 7.14301 55.6803 7.14301ZM52.3807 15.3748C52.9287 15.3748 53.4227 15.2513 53.8626 15.0043C54.3026 14.7573 54.6461 14.4177 54.8931 13.9855C55.14 13.5532 55.2635 13.067 55.2635 12.5267C55.2635 11.9864 55.14 11.5001 54.8931 11.0679C54.6461 10.6356 54.3026 10.296 53.8626 10.049C53.4227 9.80204 52.9287 9.67854 52.3807 9.67854C51.8327 9.67854 51.3387 9.80204 50.8987 10.049C50.4588 10.296 50.1153 10.6356 49.8683 11.0679C49.6213 11.5001 49.4978 11.9864 49.4978 12.5267C49.4978 13.067 49.6213 13.5532 49.8683 13.9855C50.1153 14.4177 50.4588 14.7573 50.8987 15.0043C51.3387 15.2513 51.8327 15.3748 52.3807 15.3748ZM64.9088 8.93757C65.6112 8.93757 66.2403 9.09194 66.796 9.40068C67.3517 9.70942 67.7878 10.1378 68.1043 10.6858C68.4207 11.2338 68.579 11.8474 68.579 12.5267C68.579 13.2059 68.4207 13.8195 68.1043 14.3675C67.7878 14.9155 67.3517 15.3439 66.796 15.6527C66.2403 15.9614 65.6112 16.1158 64.9088 16.1158C64.2913 16.1158 63.7279 15.9884 63.2185 15.7337C62.709 15.479 62.3077 15.1239 62.0144 14.6686H61.9912V15.5948C61.9912 15.7337 61.9526 15.8456 61.8754 15.9305C61.806 16.0154 61.7056 16.0579 61.5744 16.0579C61.4432 16.0579 61.339 16.0154 61.2618 15.9305C61.1924 15.8456 61.1576 15.7337 61.1576 15.5948V7.60612C61.1576 7.46719 61.1924 7.35527 61.2618 7.27037C61.339 7.18547 61.4432 7.14301 61.5744 7.14301C61.7056 7.14301 61.806 7.18547 61.8754 7.27037C61.9526 7.35527 61.9912 7.46719 61.9912 7.60612V10.3848H62.0144C62.3077 9.92939 62.709 9.57434 63.2185 9.31963C63.7279 9.06492 64.2913 8.93757 64.9088 8.93757ZM64.8857 15.3748C65.4337 15.3748 65.9277 15.2513 66.3676 15.0043C66.8076 14.7573 67.151 14.4177 67.398 13.9855C67.645 13.5532 67.7685 13.067 67.7685 12.5267C67.7685 11.9864 67.645 11.5001 67.398 11.0679C67.151 10.6356 66.8076 10.296 66.3676 10.049C65.9277 9.80204 65.4337 9.67854 64.8857 9.67854C64.3376 9.67854 63.8437 9.80204 63.4037 10.049C62.9637 10.296 62.6164 10.6356 62.3617 11.0679C62.1147 11.5001 61.9912 11.9864 61.9912 12.5267C61.9912 13.067 62.1147 13.5532 62.3617 13.9855C62.6164 14.4177 62.9637 14.7573 63.4037 15.0043C63.8437 15.2513 64.3376 15.3748 64.8857 15.3748ZM71.7618 17.9103C71.6537 17.9103 71.5611 17.8717 71.4839 17.7946C71.4067 17.7174 71.3681 17.6209 71.3681 17.5051C71.3681 17.4202 71.3913 17.3353 71.4376 17.2504L72.5722 15.3285L69.1683 9.65539C69.1143 9.53189 69.0873 9.44699 69.0873 9.40068C69.0873 9.2849 69.1259 9.18842 69.2031 9.11123C69.288 9.03405 69.3845 8.99546 69.4925 8.99546C69.67 8.99546 69.7974 9.0765 69.8746 9.23859L73.0237 14.518H73.0469L76.1497 9.23859C76.2424 9.0765 76.3736 8.99546 76.5434 8.99546C76.6514 8.99546 76.7441 9.03405 76.8212 9.11123C76.8984 9.18842 76.937 9.2849 76.937 9.40068C76.937 9.47014 76.91 9.55505 76.856 9.65539L72.1438 17.6672C72.0666 17.8293 71.9393 17.9103 71.7618 17.9103ZM77.9885 10.4195C77.9885 10.1262 78.058 9.92168 78.1969 9.8059C78.3358 9.69012 78.5018 9.63223 78.6948 9.63223C78.8877 9.63223 79.0575 9.69012 79.2042 9.8059C79.3508 9.92168 79.4242 10.1262 79.4242 10.4195C79.4242 10.6974 79.3508 10.8981 79.2042 11.0216C79.0575 11.1451 78.8877 11.2068 78.6948 11.2068C78.5018 11.2068 78.3358 11.1451 78.1969 11.0216C78.058 10.8981 77.9885 10.6974 77.9885 10.4195ZM77.9885 15.3748C77.9885 15.0892 78.058 14.8885 78.1969 14.7728C78.3358 14.657 78.5018 14.5991 78.6948 14.5991C78.8877 14.5991 79.0575 14.657 79.2042 14.7728C79.3508 14.8885 79.4242 15.0892 79.4242 15.3748C79.4242 15.6527 79.3508 15.8533 79.2042 15.9768C79.0575 16.1003 78.8877 16.1621 78.6948 16.1621C78.5018 16.1621 78.3358 16.1003 78.1969 15.9768C78.058 15.8533 77.9885 15.6527 77.9885 15.3748Z" fill="#424141"/>
</svg>
