<svg width="70" height="70" viewBox="0 0 70 70" fill="none" xmlns="http://www.w3.org/2000/svg">
<g clip-path="url(#clip0_1_10895)">
<path d="M35.0001 64.4001C51.2373 64.4001 64.4001 51.2373 64.4001 35.0001C64.4001 18.7629 51.2373 5.6001 35.0001 5.6001C18.7629 5.6001 5.6001 18.7629 5.6001 35.0001C5.6001 51.2373 18.7629 64.4001 35.0001 64.4001Z" fill="black" fill-opacity="0.1"/>
<path d="M35 0.839844C14.42 0.839844 0 16.2398 0 34.9998C0 54.0398 14.42 69.1599 35 69.1599C55.58 69.1599 70 54.0398 70 34.9998C70 16.2398 55.58 0.839844 35 0.839844ZM12.6 46.8998C12.46 45.7799 12.46 44.7998 12.6 43.3998C12.6 43.1198 12.6 41.9998 12.6 41.9998C12.74 40.7398 12.74 39.7598 12.74 38.9198C12.74 38.2198 12.6 37.5198 12.6 37.0998L12.46 36.8198V36.3998C11.9 29.9598 12.46 24.4998 14.7 20.2998C19.04 11.4798 29.12 10.0798 34.72 10.0798H35.28C42.98 10.0798 49.14 12.1798 52.78 16.3798C56.84 20.8598 58.38 27.8598 57.54 36.3998V36.8198C57.4 37.3798 57.26 38.0798 57.26 38.9198C57.26 39.8998 57.26 40.8798 57.4 41.9998V43.3998C57.54 44.9398 57.68 45.9198 57.4 47.0398C56.84 50.9598 54.46 53.7599 50.26 55.8599C45.5 57.9599 39.62 58.3799 35.42 58.3799H34.44C30.24 58.3799 24.5 57.8199 19.6 55.8599C15.54 53.8999 13.16 50.9599 12.6 46.8998ZM53.34 39.1998C53.34 36.2598 52.22 34.1598 50.68 33.0398C50.82 33.5998 50.82 34.4398 50.82 34.9998C50.82 39.6198 49.14 43.9598 46.2 47.0398C49.98 47.0398 53.34 45.2198 53.34 39.1998ZM19.18 33.0398C17.64 34.1598 16.66 36.2598 16.66 39.1998C16.66 45.0798 19.88 47.0398 23.8 47.0398C20.86 43.9598 19.18 39.4798 19.18 34.9998C19.04 34.4398 19.04 33.5998 19.18 33.0398Z" fill="white"/>
<path d="M30.1 39.7601C30.1 44.1001 27.72 47.0401 24.22 47.4601H23.66C19.6 47.4601 16.24 45.5001 16.24 39.3401C16.24 35.8401 17.5 33.7401 19.46 32.6201C20.58 31.9201 21.98 31.5001 23.38 31.5001C27.72 31.3601 30.1 35.4201 30.1 39.7601Z" fill="#FCFAEE"/>
<path d="M53.9 39.3399C53.9 45.4999 50.54 47.4599 46.48 47.4599C46.2 47.4599 45.92 47.4599 45.78 47.3199C42.14 47.0399 40.04 43.9599 40.04 39.7599C40.04 35.2799 42.42 31.3599 46.76 31.3599C48.3 31.3599 49.42 31.7799 50.54 32.4799C52.5 33.5999 53.9 35.8399 53.9 39.3399Z" fill="#FCFAEE"/>
</g>
<defs>
<clipPath id="clip0_1_10895">
<rect width="70" height="70" fill="white"/>
</clipPath>
</defs>
</svg>
