<svg width="80" height="29" viewBox="0 0 80 29" fill="none" xmlns="http://www.w3.org/2000/svg">
<path d="M9.51456 0C11.8447 0 13.2039 0.582525 14.5631 1.16505V5.82524C13.5922 5.24272 12.0388 4.66019 10.0971 4.66019C6.99029 4.66019 5.24272 6.79611 5.24272 9.12621C5.24272 11.4563 6.79611 13.5922 9.70873 13.5922C11.8447 13.5922 13.5922 13.0097 14.5631 12.4272V17.0874C13.3981 17.6699 11.2621 18.2524 9.12621 18.2524C3.88349 18.2524 0 14.1748 0 9.12621C0 4.07767 3.88349 0 9.51456 0Z" fill="white"/>
<path d="M17.864 18.0587V0.583008H22.9126V13.7869H28.932V18.0587H17.864Z" fill="white"/>
<path d="M31.8447 0.388184H43.6894V4.66003H37.0874V6.99013H42.7185V11.0678H37.0874V13.5921H43.8836V17.8639H31.8447V0.388184Z" fill="white"/>
<path d="M74.5631 18.0581L72.0389 12.427H70.6796V17.8639H65.6311V0.388184H72.233C76.5049 0.388184 79.6117 2.32993 79.6117 6.60178C79.6117 9.12605 78.4466 10.6794 76.5049 11.6503L80 17.8639L74.5631 18.0581ZM70.6796 4.66003V8.54352H72.6214C73.5923 8.54352 74.5631 8.15517 74.5631 6.60178C74.5631 5.24255 73.5923 4.66003 72.6214 4.66003H70.6796Z" fill="white"/>
<path d="M58.8351 18.0581H63.8836L58.0584 0.388184C56.1166 0.388184 53.204 0.388184 51.2623 0.388184L45.437 18.0581H50.4856L51.2623 15.9222H58.0584L58.8351 18.0581ZM53.0098 10.6794L54.7574 5.6309L56.505 10.6794H53.0098Z" fill="white"/>
<path d="M11.6504 20.583C9.12615 20.583 7.57275 22.3306 7.57275 24.6607C7.57275 26.9908 9.32033 28.7383 11.6504 28.7383C13.9805 28.7383 15.7281 26.9908 15.7281 24.6607C15.7281 22.5248 14.1747 20.583 11.6504 20.583ZM8.93198 26.0199C8.93198 25.8257 8.93198 25.8257 8.93198 25.6315V25.4374C8.93198 25.2432 8.93198 25.2432 8.93198 25.049V24.8548C8.93198 24.0782 8.93198 23.4956 9.12615 22.9131C9.70868 21.9422 10.8737 21.7481 11.4562 21.7481C12.4271 21.7481 13.0096 21.9422 13.5922 22.5248C13.9805 23.1073 14.1747 23.884 14.1747 24.8548V25.049C14.1747 25.2432 14.1747 25.2432 14.1747 25.4374V25.6315C14.1747 25.8257 14.1747 26.0199 14.1747 26.0199C14.1747 26.4082 13.7863 26.7966 13.398 26.9908C12.8155 27.1849 12.2329 27.3791 11.6504 27.3791H11.4562C10.8737 27.3791 10.2912 27.3791 9.70867 26.9908C9.32033 26.7966 9.12615 26.6024 8.93198 26.0199ZM13.7863 25.2432C13.7863 24.8549 13.5922 24.6607 13.398 24.4665V24.6607C13.398 25.2432 13.2038 25.6315 12.8155 26.0199C13.398 26.0199 13.7863 25.8257 13.7863 25.2432ZM9.70867 24.4665C9.5145 24.6607 9.32033 24.8549 9.32033 25.2432C9.32033 26.0199 9.70868 26.2141 10.097 26.2141C9.70868 25.8257 9.5145 25.2432 9.5145 24.8548C9.70868 24.6607 9.70867 24.4665 9.70867 24.4665Z" fill="white"/>
<path d="M11.0679 25.2428C11.0679 25.8254 10.8737 26.0195 10.2912 26.2137C9.90284 26.2137 9.32031 26.0195 9.32031 25.2428C9.32031 24.8545 9.51449 24.6603 9.70866 24.4661C9.90284 24.4661 10.097 24.272 10.097 24.272C10.8737 24.272 11.0679 24.6603 11.0679 25.2428Z" fill="white"/>
<path d="M13.9805 25.2428C13.9805 26.0195 13.5921 26.2137 13.0096 26.2137C12.6213 26.2137 12.2329 25.8254 12.2329 25.2428C12.2329 24.6603 12.4271 24.272 13.0096 24.272C13.2038 24.272 13.398 24.272 13.398 24.4661C13.7863 24.4661 13.9805 24.8545 13.9805 25.2428Z" fill="white"/>
<path d="M4.27184 20.583C5.24272 20.583 6.01942 20.7772 6.40776 21.1655V23.3015C6.01942 23.1073 5.24272 22.7189 4.46602 22.7189C3.10679 22.7189 2.3301 23.6898 2.3301 24.6607C2.3301 25.6315 3.10679 26.6024 4.27184 26.6024C5.24272 26.6024 6.01942 26.4082 6.40776 26.0199V28.1558C5.82524 28.35 5.04854 28.5442 4.07767 28.5442C1.74757 28.5442 0 26.7966 0 24.4665C0 22.3306 1.74757 20.583 4.27184 20.583Z" fill="white"/>
<path d="M16.8931 28.5434V20.7764H19.2232V26.6016H21.9416V28.5434H16.8931Z" fill="white"/>
<path d="M22.9126 28.5434V20.7764H25.2427V26.6016H27.9611V28.5434H22.9126Z" fill="white"/>
<path d="M29.1262 20.7764H34.3689V22.7181H31.4563V23.689H33.9806V25.4366H31.4563V26.6016H34.5631V28.5434H29.1262V20.7764Z" fill="white"/>
<path d="M39.4176 20.583C40.3885 20.583 41.1652 20.7772 41.5535 21.1655V23.3015C41.1652 23.1073 40.3885 22.7189 39.6118 22.7189C38.2525 22.7189 37.4758 23.6898 37.4758 24.6607C37.4758 25.6315 38.2525 26.6024 39.4176 26.6024C40.3885 26.6024 41.1652 26.4082 41.5535 26.0199V28.1558C40.971 28.35 40.1943 28.5442 39.2234 28.5442C36.8933 28.5442 35.1458 26.7966 35.1458 24.4665C35.3399 22.3306 36.8933 20.583 39.4176 20.583Z" fill="white"/>
<path d="M48.9319 20.7764V22.7181H46.9901V28.5434H44.66V22.7181H42.7183V20.7764H48.9319Z" fill="white"/>
<path d="M52.4273 28.5434H50.0972V20.7764H52.4273V28.5434Z" fill="white"/>
<path d="M54.1748 20.7764H56.8933C58.6408 20.7764 60 21.3589 60 22.9123C60 23.689 59.4175 24.0773 59.0292 24.2715C59.6117 24.4657 60.3884 25.0482 60.3884 26.0191C60.3884 27.5725 59.0292 28.3492 57.0874 28.3492H54.369L54.1748 20.7764ZM56.3107 22.5239V23.8832H56.8933C57.2816 23.8832 57.6699 23.689 57.6699 23.3006C57.6699 22.7181 57.2816 22.7181 56.8933 22.7181H56.3107V22.5239ZM56.3107 25.2424V26.6016H57.0874C57.4758 26.6016 57.8641 26.4074 57.8641 25.8249C57.8641 25.2424 57.4758 25.0482 57.0874 25.0482L56.3107 25.2424Z" fill="white"/>
<path d="M61.7476 28.5434V20.7764H64.0777V26.6016H66.7961V28.5434H61.7476Z" fill="white"/>
<path d="M67.9613 20.7764H73.0098V22.7181H70.0972V23.689H72.6215V25.4366H70.0972V26.6016H73.204V28.5434H67.7671V20.7764H67.9613Z" fill="white"/>
<path d="M80 26.2134C80 27.7668 78.8349 28.5435 76.8932 28.5435C76.1165 28.5435 75.1456 28.3493 74.5631 28.1552V26.0192C75.3398 26.4076 76.1165 26.6018 76.8932 26.6018C77.4757 26.6018 77.864 26.4076 77.864 26.2134C77.864 25.8251 77.2815 25.8251 76.5048 25.4367C75.3398 25.0484 74.3689 24.4659 74.3689 22.9125C74.3689 21.5532 75.5339 20.3882 77.4757 20.3882C78.2524 20.3882 79.0291 20.5824 79.6116 20.7765V22.9125C79.2233 22.5241 78.4466 22.3299 77.6699 22.3299C77.0873 22.3299 76.699 22.5241 76.699 22.9125C76.699 23.1066 77.0873 23.3008 77.864 23.6892C79.0291 24.2717 80 24.8542 80 26.2134Z" fill="white"/>
</svg>
