<svg width="126" height="116" viewBox="0 0 126 116" fill="none" xmlns="http://www.w3.org/2000/svg">
<path d="M23.9401 27.2753L23.9411 27.2719C25.3792 22.519 29.231 18.8638 34.0741 17.7158L69.8172 9.24337C74.6584 8.09584 79.7363 9.61244 83.179 13.2287L83.1831 13.233L108.371 39.9512C111.798 43.5767 113.023 48.7472 111.589 53.5249L101.054 88.7113L101.053 88.7146C99.6151 93.4676 95.7632 97.1227 90.9201 98.2707L55.177 106.743C50.3367 107.891 45.2565 106.375 41.831 102.75L41.8304 102.75L16.6229 76.0354C13.1968 72.4101 11.9711 67.24 13.4051 62.4626L23.9401 27.2753ZM23.9401 27.2753L13.4054 62.4617L23.9401 27.2753Z" fill="url(#paint0_linear_1_8374)" stroke="white" stroke-width="2.44156"/>
<mask id="mask0_1_8374" style="mask-type:alpha" maskUnits="userSpaceOnUse" x="14" y="10" width="97" height="96">
<path d="M70.0988 10.4312L34.3557 18.9037C29.9395 19.9505 26.4228 23.285 25.1096 27.6255L14.5746 62.8128C13.2658 67.172 14.3839 71.8889 17.5101 75.1969L42.7183 101.912C45.8445 105.22 50.4792 106.602 54.8954 105.555L90.6386 97.0829C95.0548 96.0361 98.5714 92.7016 99.8847 88.3611L110.42 53.1738C111.728 48.8146 110.61 44.0977 107.484 40.7897L82.2948 14.0704C79.1498 10.7668 74.515 9.38442 70.0988 10.4312Z" fill="url(#paint1_linear_1_8374)"/>
</mask>
<g mask="url(#mask0_1_8374)">
<path d="M23.9401 27.2753L23.9411 27.2719C25.3792 22.519 29.231 18.8638 34.0741 17.7158L69.8172 9.24337C74.6584 8.09584 79.7363 9.61244 83.179 13.2287L83.1831 13.233L108.371 39.9512C111.798 43.5767 113.023 48.7472 111.589 53.5249L101.054 88.7113L101.053 88.7146C99.6151 93.4676 95.7632 97.1227 90.9201 98.2707L55.177 106.743C50.3367 107.891 45.2565 106.375 41.831 102.75L41.8304 102.75L16.6229 76.0354C13.1968 72.4101 11.9711 67.24 13.4051 62.4626L23.9401 27.2753ZM23.9401 27.2753L13.4054 62.4617L23.9401 27.2753Z" fill="url(#paint2_linear_1_8374)" stroke="white" stroke-width="2.44156"/>
<rect x="84.5317" y="-24.2327" width="66" height="183" transform="rotate(15.4207 84.5317 -24.2327)" fill="#08A5FF"/>
</g>
<g clip-path="url(#clip0_1_8374)">
<g clip-path="url(#clip1_1_8374)">
<mask id="mask1_1_8374" style="mask-type:alpha" maskUnits="userSpaceOnUse" x="29" y="24" width="69" height="69">
<circle cx="63.2462" cy="58.4346" r="34.1818" transform="rotate(-13.3352 63.2462 58.4346)" fill="#08A5FF"/>
</mask>
<g mask="url(#mask1_1_8374)">
<circle cx="63.2462" cy="58.4346" r="34.1818" transform="rotate(-13.3352 63.2462 58.4346)" fill="#08A5FF"/>
<rect x="84.5317" y="-24.2332" width="66" height="183" transform="rotate(15.4207 84.5317 -24.2332)" fill="#5DC5FF"/>
</g>
<circle cx="63.1388" cy="57.9853" r="24.5459" transform="rotate(-13.3352 63.1388 57.9853)" fill="#08A5FF"/>
<path d="M69.1548 83.3807C82.9316 80.115 91.4526 66.2994 88.187 52.5226C84.9214 38.7457 71.1058 30.2247 57.3289 33.4904C43.5521 36.756 35.0311 50.5716 38.2967 64.3485C41.5624 78.1253 55.378 86.6463 69.1548 83.3807Z" fill="black" fill-opacity="0.1"/>
<path d="M56.3663 29.4532C38.9047 33.5923 29.7669 49.5589 33.54 65.4763C37.3693 81.6313 52.6452 91.56 70.1068 87.421C87.5684 83.2819 96.7625 67.5528 92.9332 51.3979C89.1601 35.4805 73.8279 25.3141 56.3663 29.4532ZM46.6241 73.039C46.28 72.1169 46.0829 71.2854 45.9202 70.0694C45.8638 69.8318 45.6386 68.8815 45.6386 68.8815C45.504 67.7843 45.3069 66.9528 45.1379 66.2401C44.9971 65.6461 44.7376 65.0803 44.6531 64.724L44.478 64.5146L44.3935 64.1582C42.6232 58.8067 42.0002 54.0614 43.0561 50.0473C44.9646 41.6909 53.2356 38.4757 57.9871 37.3494L58.4622 37.2368C64.9955 35.6882 70.6444 36.2311 74.5776 39.0626C78.9234 42.0472 81.6379 47.6768 82.6427 55.0917L82.7272 55.448C82.7211 55.9514 82.7431 56.5734 82.912 57.2862C83.1091 58.1177 83.3062 58.9492 83.6502 59.8713L83.9318 61.0592C84.3603 62.3377 84.6762 63.141 84.6639 64.1476C84.9771 67.5863 83.5209 70.4407 80.3797 73.0672C76.7633 75.8063 71.8587 77.3452 68.2951 78.1899L67.4636 78.387C63.9 79.2318 58.9172 79.911 54.3654 79.2335C50.5264 78.3871 47.9158 76.3712 46.6241 73.039ZM79.6423 58.3121C79.051 55.8176 77.6783 54.2611 76.1464 53.6205C76.3779 54.0675 76.5468 54.7802 76.6594 55.2554C77.5886 59.1753 77.036 63.1956 75.161 66.4002C78.3682 65.6399 80.853 63.4199 79.6423 58.3121ZM49.4195 59.9558C48.3381 61.2158 47.929 63.1947 48.5203 65.6892C49.7028 70.6783 52.8291 71.6937 56.1551 70.9053C53.0412 68.8833 50.7147 65.42 49.8137 61.6188C49.5823 61.1718 49.4133 60.4591 49.4195 59.9558Z" fill="white"/>
<path d="M60.028 63.4641C60.9009 67.1465 59.4728 70.1196 56.5876 71.1799L56.1125 71.2926C52.6677 72.1091 49.4226 71.1219 48.1837 65.8953C47.4798 62.9256 48.1265 60.8904 49.5642 59.5459C50.3738 58.7267 51.4772 58.0888 52.665 57.8072C56.3192 56.8156 59.1552 59.7817 60.028 63.4641Z" fill="white"/>
<path d="M80.1304 58.3222C81.3693 63.5488 78.9126 65.8875 75.4678 66.7041C75.2303 66.7604 74.9927 66.8167 74.8458 66.7261C71.701 67.2206 69.2997 65.0296 68.455 61.4661C67.554 57.6649 68.785 53.8602 72.4674 52.9873C73.774 52.6776 74.8088 52.8087 75.8999 53.1774C77.7881 53.7335 79.4265 55.3525 80.1304 58.3222Z" fill="white"/>
</g>
</g>
<defs>
<linearGradient id="paint0_linear_1_8374" x1="29.6481" y1="19.9767" x2="95.3415" y2="95.9912" gradientUnits="userSpaceOnUse">
<stop stop-color="#71CCFF"/>
<stop offset="1" stop-color="#11A7FC"/>
</linearGradient>
<linearGradient id="paint1_linear_1_8374" x1="29.6481" y1="19.9767" x2="95.3415" y2="95.9912" gradientUnits="userSpaceOnUse">
<stop stop-color="#44BCFF"/>
<stop offset="1" stop-color="#11A7FC"/>
</linearGradient>
<linearGradient id="paint2_linear_1_8374" x1="29.6481" y1="19.9767" x2="95.3415" y2="95.9912" gradientUnits="userSpaceOnUse">
<stop stop-color="#71CCFF"/>
<stop offset="1" stop-color="#11A7FC"/>
</linearGradient>
<clipPath id="clip0_1_8374">
<rect width="106.208" height="94" fill="white" transform="translate(0 24.4966) rotate(-13.3352)"/>
</clipPath>
<clipPath id="clip1_1_8374">
<rect width="68.3636" height="68.3636" fill="white" transform="translate(22.1021 33.0583) rotate(-13.3352)"/>
</clipPath>
</defs>
</svg>
