<svg width="30" height="30" viewBox="0 0 30 30" fill="none" xmlns="http://www.w3.org/2000/svg">
<g id="Group">
<g id="Group_2">
<path id="Vector" d="M15 28.741C0.0187253 28.741 0.00629549 14.4944 0.0187247 14.244C0.412506 6.31099 6.96926 0 15 0C23.0307 0 29.5875 6.31099 29.9813 14.244C29.9937 14.4944 29.9813 28.741 15 28.741Z" fill="#FF9838"/>
<path id="Vector_2" d="M15 28.4881C6.96925 28.4881 0.412748 22.1771 0.0188861 14.2441C0.00645684 14.4946 0 14.7466 0 15.0001C0 23.2844 6.71575 30.0001 15 30.0001C23.2843 30.0001 30 23.2844 30 15.0001C30 14.7466 29.9935 14.4946 29.9811 14.2441C29.5873 22.1771 23.0307 28.4881 15 28.4881Z" fill="#FF8709"/>
<path id="Vector_3" d="M26.8167 15.0014C26.8167 20.0614 21.5262 26.0918 14.9999 26.0918C8.47369 26.0918 3.18311 19.7296 3.18311 15.0014C3.18311 14.7474 3.1911 14.4953 3.20692 14.2453C3.59674 8.07136 8.72768 3.18457 14.9999 3.18457C21.2722 3.18457 26.4031 8.07136 26.7929 14.2453C26.8088 14.4953 26.8167 14.7474 26.8167 15.0014Z" fill="#CE7430"/>
<path id="Vector_4" d="M14.9999 25.3049C8.72776 25.3049 3.59779 20.4179 3.20788 14.2441C3.19206 14.4942 3.18311 14.7461 3.18311 15.0001C3.18311 21.5264 8.47369 26.817 14.9999 26.817C21.5262 26.817 26.8167 21.5264 26.8167 15.0001C26.8167 14.7461 26.8078 14.4942 26.792 14.2441C26.4021 20.4179 21.2721 25.3049 14.9999 25.3049Z" fill="#BC672E"/>
<path id="Vector_5" d="M15.0149 22.0184C12.4699 22.0184 10.8505 20.264 10.5388 18.1825C10.5105 17.9932 10.5015 17.5868 10.5015 17.5868C10.7182 17.0347 11.2559 16.6437 11.8849 16.6437C12.7053 16.6437 13.3704 17.3088 13.3704 18.1293C13.3704 19.036 14.1081 19.7737 15.0149 19.7737C15.9216 19.7737 16.6594 19.036 16.6594 18.1293C16.6594 17.8566 16.5927 17.5993 16.4748 17.3727C16.4748 17.3727 16.3633 15.9719 15.0944 15.9719C13.8217 15.9719 13.7364 14.2425 13.7364 14.2425C13.9953 13.8062 14.471 13.5138 15.0149 13.5138C15.9217 13.5138 16.6595 12.7761 16.6595 11.8694C16.6595 10.9626 15.9217 10.2249 15.0149 10.2249C14.1082 10.2249 13.3705 10.9626 13.3705 11.8694C13.3705 12.6898 12.7054 13.3549 11.885 13.3549C11.0645 13.3549 10.3994 12.6898 10.3994 11.8694C10.3994 9.32443 12.4699 7.25391 15.0149 7.25391C17.5599 7.25391 19.6304 9.32443 19.6304 11.8694C19.6304 13.0761 19.165 14.176 18.4041 14.9993C19.0028 15.6471 19.4185 16.4662 19.5686 17.3737C19.5686 17.3737 19.5732 17.8719 19.5301 18.1255C19.1618 20.2903 17.5599 22.0184 15.0149 22.0184Z" fill="#FFAA5C"/>
<g id="Group_3">
<path id="Vector_6" d="M15.0148 14.9736C14.4708 14.9736 13.9964 14.6803 13.7377 14.2441C13.6061 14.4658 13.5293 14.7237 13.5293 15.0001C13.5293 15.8206 14.1943 16.4857 15.0148 16.4857C15.649 16.4857 16.1994 16.8471 16.4737 17.3742C16.5916 17.1476 16.6594 16.8908 16.6594 16.6182C16.6593 15.7113 15.9215 14.9736 15.0148 14.9736Z" fill="#EA9957"/>
<path id="Vector_7" d="M15.0149 21.2348C12.8028 21.2348 10.9499 19.6701 10.5029 17.5895C10.4369 17.7575 10.3994 17.9399 10.3994 18.1314C10.3994 20.6764 12.4699 22.7469 15.0149 22.7469C17.56 22.7469 19.6305 20.6764 19.6305 18.1314C19.6305 17.874 19.6081 17.622 19.5674 17.376C19.2052 19.5621 17.3022 21.2348 15.0149 21.2348Z" fill="#EA9957"/>
</g>
</g>
</g>
</svg>
