<svg width="40" height="40" viewBox="0 0 40 40" fill="none" xmlns="http://www.w3.org/2000/svg">
<path d="M30.2465 11.9421H27.3185C27.3185 7.89812 24.0401 4.61572 20.0001 4.61572C15.9601 4.61572 12.6817 7.89812 12.6817 11.9421H9.75368C8.14408 11.9421 6.84168 13.2613 6.84168 14.8733L6.82568 32.4581C6.82737 33.2345 7.1363 33.9786 7.68495 34.5278C8.23359 35.0771 8.97735 35.3868 9.75368 35.3893H30.2457C31.022 35.3868 31.7658 35.0771 32.3144 34.5278C32.8631 33.9786 33.172 33.2345 33.1737 32.4581V14.8741C33.172 14.0978 32.8631 13.3537 32.3144 12.8044C31.7658 12.2552 31.022 11.9455 30.2457 11.9429L30.2465 11.9421ZM20.0001 7.54612C20.5773 7.5456 21.149 7.65897 21.6824 7.87975C22.2157 8.10054 22.7003 8.42439 23.1083 8.83275C23.5163 9.24111 23.8397 9.72597 24.06 10.2595C24.2803 10.7931 24.3931 11.3649 24.3921 11.9421H15.6081C15.607 11.3649 15.7199 10.7931 15.9402 10.2595C16.1605 9.72597 16.4839 9.24111 16.8919 8.83275C17.2999 8.42439 17.7844 8.10054 18.3178 7.87975C18.8511 7.65897 19.4228 7.5456 20.0001 7.54612ZM20.0001 22.2005C15.9601 22.2005 12.6817 18.9181 12.6817 14.8725H15.6089C15.6077 15.4498 15.7205 16.0217 15.9408 16.5554C16.161 17.089 16.4844 17.574 16.8924 17.9824C17.3004 18.3909 17.785 18.7148 18.3184 18.9356C18.8518 19.1565 19.4236 19.2699 20.0009 19.2693C20.578 19.2696 21.1495 19.1561 21.6827 18.9352C22.2159 18.7144 22.7002 18.3905 23.1081 17.9821C23.5159 17.5738 23.8391 17.089 24.0593 16.5556C24.2795 16.0221 24.3923 15.4504 24.3913 14.8733H27.3193C27.3193 18.9181 24.0401 22.2005 20.0001 22.2005Z" fill="#F3F8FA"/>
</svg>
