<svg width="24" height="24" viewBox="0 0 24 24" fill="none" xmlns="http://www.w3.org/2000/svg">
<g clip-path="url(#clip0_1_2081)">
<path d="M12 24C5.373 24 0 18.627 0 12C0 5.373 5.373 0 12 0C18.627 0 24 5.373 24 12C24 18.627 18.627 24 12 24ZM13 12.589V6.997C13 6.453 12.552 6 12 6C11.444 6 11 6.446 11 6.997V13.003C10.9992 13.1328 11.024 13.2614 11.0731 13.3816C11.1222 13.5017 11.1945 13.6109 11.286 13.703L14.128 16.545C14.2207 16.6372 14.3307 16.7101 14.4517 16.7596C14.5727 16.8092 14.7022 16.8343 14.833 16.8337C14.9637 16.833 15.093 16.8066 15.2135 16.7558C15.3339 16.7051 15.4432 16.6311 15.535 16.538C15.7213 16.3517 15.8265 16.0994 15.8278 15.8359C15.8291 15.5725 15.7264 15.3192 15.542 15.131L13 12.589Z" fill="white"/>
</g>
<defs>
<clipPath id="clip0_1_2081">
<rect width="24" height="24" fill="white"/>
</clipPath>
</defs>
</svg>
