<svg width="30" height="30" viewBox="0 0 30 30" fill="none" xmlns="http://www.w3.org/2000/svg">
<g id="Group">
<g id="Group_2">
<path id="Vector" d="M14.999 29.0646C-0.000934703 29.0646 0.00536119 14.4943 0.0177904 14.2438C0.41157 6.31096 6.96829 0 14.999 0C23.0297 0 29.5864 6.31096 29.9802 14.2439C29.9926 14.4944 29.9989 29.0646 14.999 29.0646Z" fill="#FFE27A"/>
<path id="Vector_2" d="M14.9999 28.4881C6.96922 28.4881 0.412746 22.1771 0.018886 14.2441C0.00645681 14.4946 0 14.7466 0 15.0001C0 23.2844 6.71571 30.0001 14.9999 30.0001C23.2841 30.0001 29.9999 23.2844 29.9999 15.0001C29.9999 14.7466 29.9934 14.4946 29.981 14.2441C29.5871 22.1771 23.0306 28.4881 14.9999 28.4881Z" fill="#F9CF58"/>
<path id="Vector_3" d="M14.9996 25.8368C3.20661 25.8368 3.19079 14.2404 3.20661 13.9904C3.59651 7.81645 8.72735 2.92969 14.9996 2.92969C21.2718 2.92969 26.4026 7.81645 26.7925 13.9904C26.8083 14.2403 26.7925 25.8368 14.9996 25.8368Z" fill="#FFBA57"/>
<path id="Vector_4" d="M14.9989 25.3049C8.72676 25.3049 3.59681 20.418 3.20691 14.2441C3.19109 14.4942 3.18213 14.7462 3.18213 15.0001C3.18213 21.5264 8.47268 26.8169 14.9989 26.8169C21.5251 26.8169 26.8157 21.5264 26.8157 15.0001C26.8157 14.7461 26.8067 14.4942 26.7909 14.2441C26.401 20.418 21.271 25.3049 14.9989 25.3049Z" fill="#FFAC3E"/>
<path id="Vector_5" d="M15.6743 22.0214C14.8539 22.0214 14.1888 21.3564 14.1888 20.5359V19.7502V12.2107C14.1888 12.2107 13.2999 13.1021 12.2364 12.5672C11.4072 12.1502 11.4072 11.0769 11.4072 11.0769L13.2388 7.98523C13.5062 7.53375 13.9921 7.25684 14.5169 7.25684H15.6743C16.4947 7.25684 17.1598 7.92188 17.1598 8.74237V19.7502V20.5359C17.1598 21.3564 16.4947 22.0214 15.6743 22.0214Z" fill="#FFE27A"/>
<g id="Group_3">
<path id="Vector_6" d="M13.9859 11.0404C13.5916 11.706 12.7533 11.9946 12.0541 11.6633C11.7711 11.5292 11.553 11.3209 11.4079 11.0749C10.9954 11.7727 11.2188 12.6704 11.9056 13.0946C12.6139 13.532 13.5604 13.2708 13.9846 12.5545L14.1901 12.2076V11.0961C14.1901 10.9846 14.0428 10.9443 13.9859 11.0404Z" fill="#F9CF58"/>
<path id="Vector_7" d="M15.6757 21.2346C14.8553 21.2346 14.1902 20.5695 14.1902 19.749V21.2611C14.1902 22.0816 14.8553 22.7466 15.6757 22.7466C16.4961 22.7466 17.1612 22.0816 17.1612 21.2611V19.749C17.1612 20.5695 16.4961 21.2346 15.6757 21.2346Z" fill="#F9CF58"/>
</g>
</g>
</g>
</svg>
