<svg width="30" height="30" viewBox="0 0 30 30" fill="none" xmlns="http://www.w3.org/2000/svg">
<g id="Group">
<g id="Group_2">
<path id="Vector" d="M15 29.0101C0.0187253 29.0101 0.00629546 14.4945 0.0187247 14.244C0.412507 6.311 6.96927 0 15 0C23.0255 0 29.5788 6.30261 29.9805 14.2281C29.9935 14.4838 29.9805 29.0101 15 29.0101Z" fill="#E0E0E0"/>
<path id="Vector_2" d="M15 28.4882C6.96927 28.4882 0.412749 22.1772 0.0188861 14.2441C0.00645686 14.4946 0 14.7466 0 15.0001C0 23.2844 6.71576 30.0002 15 30.0002C23.2843 30.0002 30.0001 23.2844 30.0001 15.0001C30.0001 14.7466 29.9936 14.4946 29.9812 14.2441C29.5873 22.1772 23.0308 28.4882 15 28.4882Z" fill="#CECECE"/>
<path id="Vector_3" d="M15 25.8793C3.18313 25.8793 3.19112 14.4954 3.20694 14.2453C3.59684 8.07137 8.72771 3.18457 15 3.18457C21.2722 3.18457 26.4031 8.07137 26.793 14.2453C26.8088 14.4954 26.793 25.8793 15 25.8793Z" fill="#9E9E9E"/>
<path id="Vector_4" d="M14.9999 25.3049C8.72777 25.3049 3.59779 20.4179 3.20788 14.2441C3.19206 14.4942 3.18311 14.7462 3.18311 15.0001C3.18311 21.5264 8.4737 26.817 14.9999 26.817C21.5262 26.817 26.8168 21.5264 26.8168 15.0001C26.8168 14.7461 26.8078 14.4942 26.792 14.2441C26.4021 20.4179 21.2721 25.3049 14.9999 25.3049Z" fill="#898989"/>
<path id="Vector_5" d="M18.4016 22.0186H11.6282C10.8078 22.0186 10.1743 20.5904 10.2361 20.264C10.4074 19.3577 10.8107 18.5036 11.4129 17.7918L16.1787 12.1593C16.6247 11.6322 16.4257 11.0644 16.354 10.9028C16.2669 10.7064 15.9962 10.2473 15.3653 10.226C15.3471 10.2253 15.3281 10.225 15.3092 10.225C14.4231 10.225 13.7022 10.9459 13.7022 11.832C13.7022 12.6524 13.0371 13.3175 12.2167 13.3175C11.3963 13.3175 10.7312 12.6525 10.7312 11.832C10.7312 9.30772 12.7848 7.25391 15.3092 7.25391C15.3614 7.25391 15.4134 7.25479 15.4651 7.25657C17.0446 7.30984 18.4257 8.24558 19.07 9.69844C19.7239 11.173 19.4851 12.8513 18.4468 14.0784L13.681 19.7109C13.6635 19.7317 13.6463 19.7527 13.6295 19.774H18.4016C18.9456 19.774 19.4213 20.0664 19.6802 20.5026C19.8116 20.7242 19.222 22.0186 18.4016 22.0186Z" fill="#E0E0E0"/>
<g id="Group_3">
<path id="Vector_6" d="M18.4017 21.2343H11.6284C10.9899 21.2343 10.4472 20.8308 10.2371 20.2656C10.1753 20.5921 10.1428 20.9251 10.1428 21.2609C10.1428 22.0813 10.8079 22.7464 11.6284 22.7464H18.4017C19.2221 22.7464 19.8872 22.0813 19.8872 21.2609C19.8872 20.9844 19.8103 20.7265 19.6788 20.5048C19.42 20.941 18.9456 21.2343 18.4017 21.2343Z" fill="#CECECE"/>
</g>
</g>
</g>
</svg>
