<svg width="20" height="20" viewBox="0 0 20 20" fill="none" xmlns="http://www.w3.org/2000/svg">
<path d="M9.16669 16.2498H13.9167C13.6702 16.8657 13.2446 17.3935 12.6949 17.765C12.1452 18.1364 11.4967 18.3343 10.8333 18.3331H5.00001C4.56223 18.3333 4.12873 18.2471 3.72426 18.0797C3.31978 17.9122 2.95227 17.6667 2.64272 17.3571C2.33317 17.0476 2.08764 16.68 1.92017 16.2756C1.7527 15.8711 1.66656 15.4376 1.66669 14.9998V8.33314C1.66767 7.52142 1.9643 6.73785 2.50111 6.12896C3.03791 5.52008 3.77813 5.12758 4.58333 5.02486V11.6665C4.58333 14.1915 6.64165 16.2498 9.16669 16.2498ZM16.25 5.20814H18.0167C17.9654 5.13304 17.9068 5.06325 17.8416 4.99982L15 2.15803C14.9386 2.09315 14.8685 2.03714 14.7917 1.99162V3.74982C14.7935 4.13603 14.9478 4.50589 15.2209 4.77898C15.4939 5.05207 15.8638 5.20631 16.25 5.20814ZM16.25 6.45814C15.5321 6.45676 14.8441 6.17098 14.3365 5.66337C13.8289 5.15576 13.5431 4.46769 13.5417 3.74982V1.6665H9.16669C8.72891 1.66638 8.2954 1.75252 7.89093 1.91999C7.48645 2.08746 7.11894 2.33298 6.80939 2.64253C6.49983 2.95209 6.2543 3.3196 6.08682 3.72407C5.91935 4.12854 5.83321 4.56205 5.83333 4.99982V11.6665C5.83321 12.1043 5.91936 12.5378 6.08684 12.9423C6.25431 13.3467 6.49984 13.7142 6.8094 14.0238C7.11895 14.3333 7.48646 14.5789 7.89094 14.7463C8.29541 14.9138 8.72891 14.9999 9.16669 14.9998H15C15.4378 14.9999 15.8713 14.9138 16.2758 14.7463C16.6802 14.5789 17.0477 14.3333 17.3573 14.0238C17.6668 13.7142 17.9124 13.3467 18.0798 12.9422C18.2473 12.5378 18.3334 12.1043 18.3333 11.6665V6.45814H16.25Z" fill="#424141" fill-opacity="0.49"/>
</svg>
