<svg width="20" height="20" viewBox="0 0 20 20" fill="none" xmlns="http://www.w3.org/2000/svg">
<g clip-path="url(#clip0_1_11371)">
<path fill-rule="evenodd" clip-rule="evenodd" d="M9.85651 16.8146V17.8114C9.85651 18.6107 9.45815 19.3007 8.76593 19.7003C8.43288 19.8926 8.06116 19.9998 7.67577 20C7.29003 20.0002 6.91843 19.8928 6.58514 19.7003L2.15327 17.1416C1.46096 16.7419 1.06268 16.052 1.06268 15.2526V2.18117C1.06268 0.978398 2.04112 0 3.24385 0H13.0044C14.2073 0 15.1858 0.97832 15.1858 2.18117V4.9366C15.1858 5.33187 14.8648 5.65281 14.4696 5.65281C14.0742 5.65281 13.7535 5.33191 13.7535 4.9366V2.18117C13.7535 1.76816 13.4174 1.43211 13.0044 1.43211H4.45163L8.76593 3.9234C9.45792 4.32301 9.85651 5.01285 9.85651 5.81195V15.3824H13.0044C13.4174 15.3824 13.7535 15.0465 13.7535 14.6335V12.218C13.7535 11.8225 14.074 11.5018 14.4696 11.5018C14.865 11.5018 15.1858 11.8225 15.1858 12.218V14.6335C15.1858 15.8363 14.2073 16.8146 13.0044 16.8146H9.85651ZM16.4926 9.12336L15.7039 9.91207C15.4242 10.1917 15.4243 10.6451 15.7039 10.9248C15.8385 11.0595 16.0199 11.1343 16.2102 11.1343C16.4008 11.1343 16.582 11.0596 16.7168 10.9248L18.7277 8.91352C19.0073 8.63391 19.0073 8.18078 18.7277 7.90117L16.7168 5.89023C16.4371 5.61055 15.9837 5.61066 15.7039 5.8902C15.4243 6.16957 15.4244 6.62312 15.7039 6.90258L16.4926 7.69109H11.209C10.8133 7.69109 10.4929 8.01172 10.4929 8.40734C10.4929 8.80297 10.8133 9.1234 11.209 9.1234H16.4926V9.12336Z" fill="#424141"/>
</g>
<defs>
<clipPath id="clip0_1_11371">
<rect width="20" height="20" fill="white"/>
</clipPath>
</defs>
</svg>
