<svg width="22" height="18" viewBox="0 0 22 18" fill="none" xmlns="http://www.w3.org/2000/svg">
<path d="M18.0308 2.39927C18.0252 2.38838 18.0159 2.37985 18.0045 2.3752C16.694 1.77394 15.3111 1.34519 13.8903 1.09968C13.8774 1.09728 13.8641 1.09902 13.8522 1.10463C13.8403 1.11025 13.8306 1.11946 13.8242 1.13097C13.6359 1.47275 13.465 1.82382 13.312 2.18284C11.7805 1.95036 10.2227 1.95036 8.69114 2.18284C8.5372 1.82291 8.36352 1.47175 8.17088 1.13097C8.16427 1.11971 8.15443 1.11071 8.14263 1.10513C8.13084 1.09955 8.11763 1.09765 8.10474 1.09968C6.68381 1.34467 5.30078 1.77345 3.99047 2.37524C3.97925 2.37999 3.96978 2.38811 3.96338 2.39848C1.34301 6.31166 0.625188 10.1286 0.977325 13.8983C0.978316 13.9076 0.981154 13.9165 0.985672 13.9246C0.99019 13.9327 0.996294 13.9399 1.00362 13.9456C2.52944 15.0753 4.23609 15.9377 6.05073 16.4958C6.06351 16.4997 6.07716 16.4995 6.08984 16.4953C6.10251 16.4912 6.11362 16.4832 6.12165 16.4726C6.51139 15.9423 6.85674 15.3807 7.15417 14.7937C7.15826 14.7856 7.16059 14.7768 7.16102 14.7677C7.16144 14.7587 7.15995 14.7497 7.15664 14.7413C7.15333 14.7329 7.14828 14.7253 7.14182 14.719C7.13535 14.7127 7.12762 14.7078 7.11914 14.7047C6.57456 14.4963 6.04734 14.2451 5.54243 13.9535C5.53326 13.9481 5.52555 13.9405 5.52 13.9315C5.51445 13.9224 5.51121 13.9121 5.51058 13.9015C5.50995 13.8908 5.51195 13.8802 5.5164 13.8706C5.52084 13.8609 5.5276 13.8525 5.53607 13.846C5.64231 13.7667 5.74672 13.6849 5.84919 13.6007C5.85818 13.5933 5.86905 13.5886 5.88059 13.587C5.89213 13.5854 5.90388 13.5871 5.9145 13.5919C9.22238 15.1016 12.8036 15.1016 16.0723 13.5919C16.083 13.5868 16.0948 13.5849 16.1065 13.5863C16.1183 13.5877 16.1293 13.5925 16.1385 13.5999C16.241 13.6845 16.3457 13.7666 16.4524 13.846C16.4609 13.8524 16.4677 13.8608 16.4722 13.8704C16.4767 13.88 16.4788 13.8906 16.4783 13.9013C16.4777 13.9119 16.4745 13.9222 16.4691 13.9313C16.4636 13.9404 16.4559 13.948 16.4468 13.9535C15.943 14.2476 15.4153 14.4986 14.8693 14.7039C14.8608 14.7071 14.8531 14.7121 14.8467 14.7185C14.8403 14.7249 14.8353 14.7326 14.8321 14.7411C14.8288 14.7496 14.8274 14.7586 14.8279 14.7677C14.8284 14.7767 14.8308 14.7856 14.835 14.7937C15.1374 15.3775 15.4822 15.9383 15.8667 16.4717C15.8745 16.4826 15.8855 16.4908 15.8983 16.4951C15.911 16.4995 15.9247 16.4997 15.9376 16.4957C17.7555 15.9395 19.4651 15.077 20.9929 13.9456C21.0003 13.9402 21.0065 13.9332 21.011 13.9252C21.0156 13.9172 21.0183 13.9083 21.0192 13.8991C21.4407 9.54095 20.3134 5.75526 18.0308 2.39927ZM7.64817 11.603C6.65226 11.603 5.83166 10.689 5.83166 9.56663C5.83166 8.44421 6.63634 7.53022 7.64817 7.53022C8.66791 7.53022 9.48057 8.45215 9.46465 9.56656C9.46465 10.689 8.65993 11.603 7.64817 11.603ZM14.3644 11.603C13.3685 11.603 12.5479 10.689 12.5479 9.56663C12.5479 8.44421 13.3526 7.53022 14.3644 7.53022C15.3842 7.53022 16.1968 8.45215 16.1809 9.56656C16.1809 10.689 15.3842 11.603 14.3644 11.603Z" fill="#424141"/>
</svg>
