<svg width="20" height="20" viewBox="0 0 20 20" fill="none" xmlns="http://www.w3.org/2000/svg">
<g id="homepage 1">
<path id="Vector" d="M18.2563 6.13122L11.3938 1.54997C10.9799 1.27783 10.4953 1.13281 10 1.13281C9.50465 1.13281 9.02014 1.27783 8.60625 1.54997L1.74375 6.13122C1.39944 6.35978 1.11708 6.67003 0.921867 7.03429C0.726654 7.39854 0.624664 7.80546 0.625001 8.21872V16.8687C0.625993 17.5331 0.890362 18.17 1.36016 18.6398C1.82996 19.1096 2.46686 19.374 3.13125 19.375H16.8688C17.5331 19.374 18.17 19.1096 18.6398 18.6398C19.1096 18.17 19.374 17.5331 19.375 16.8687V8.21872C19.3753 7.80546 19.2733 7.39854 19.0781 7.03429C18.8829 6.67003 18.6006 6.35978 18.2563 6.13122ZM12.8125 16.875H7.1875C6.93886 16.875 6.7004 16.7762 6.52459 16.6004C6.34877 16.4246 6.25 16.1861 6.25 15.9375C6.25 15.6888 6.34877 15.4504 6.52459 15.2746C6.7004 15.0987 6.93886 15 7.1875 15H12.8125C13.0611 15 13.2996 15.0987 13.4754 15.2746C13.6512 15.4504 13.75 15.6888 13.75 15.9375C13.75 16.1861 13.6512 16.4246 13.4754 16.6004C13.2996 16.7762 13.0611 16.875 12.8125 16.875Z" fill="#424141"/>
</g>
</svg>
