<svg width="20" height="20" viewBox="0 0 20 20" fill="none" xmlns="http://www.w3.org/2000/svg">
<path d="M19.3842 9.83149C18.9881 9.43614 18.4622 9.21864 17.9028 9.21864C17.9014 9.21864 17.9 9.21864 17.8986 9.21864L14.7682 9.22473C14.7676 9.22473 14.767 9.22473 14.7664 9.22473C14.5196 9.22473 14.2876 9.12876 14.1129 8.95438C13.9378 8.77958 13.8413 8.547 13.8413 8.29958V4.839C13.8413 3.68256 12.9004 2.7417 11.744 2.7417H8.07366C7.51331 2.7417 6.98651 2.95994 6.59042 3.35627C6.19425 3.7526 5.9762 4.27939 5.9764 4.83978L5.97764 8.29028C5.97772 8.53747 5.88151 8.76985 5.70679 8.94466C5.53202 9.11946 5.29968 9.21575 5.05249 9.21575H2.0973C0.940858 9.21575 0 10.1566 0 11.3131V15.1607C0 16.3172 0.940858 17.258 2.0973 17.258H17.9027C19.0591 17.258 20 16.3172 20 15.1607V11.316C20 10.755 19.7813 10.2278 19.3842 9.83149ZM5.1903 14.4794C5.26155 14.4795 5.32347 14.5168 5.37608 14.5914C5.42862 14.666 5.45499 14.7536 5.45499 14.8544C5.45499 14.9551 5.42886 15.0446 5.37663 15.123C5.32436 15.2013 5.26276 15.2405 5.19198 15.2405H3.19988C3.11402 15.2405 3.02921 15.2143 2.94527 15.1618C2.86132 15.1092 2.81933 15.0453 2.81933 14.9703V14.4242C2.81933 14.2628 2.87921 14.1014 2.99902 13.94C3.11882 13.7786 3.26359 13.6341 3.43324 13.5064L3.94698 13.1217C4.12464 12.9936 4.27487 12.8596 4.39773 12.72C4.52058 12.5805 4.58202 12.4447 4.58202 12.3127C4.58202 12.207 4.54612 12.1138 4.47429 12.0326C4.40245 11.9515 4.29472 11.911 4.15112 11.911C4.02636 11.911 3.92433 11.9459 3.84495 12.0155C3.76554 12.0852 3.72585 12.1955 3.72585 12.3466C3.72585 12.4357 3.68441 12.5131 3.60159 12.5789C3.5187 12.6447 3.40925 12.6776 3.273 12.6776C3.01523 12.6776 2.88644 12.5265 2.88644 12.2243C2.88644 11.8998 3.01175 11.6396 3.26242 11.4437C3.51312 11.2479 3.80738 11.1499 4.14542 11.1499C4.49386 11.1499 4.79917 11.2522 5.06147 11.4568C5.32378 11.6614 5.45495 11.9373 5.45495 12.2844C5.45495 12.5107 5.39499 12.7239 5.27503 12.9237C5.15507 13.1236 5.01069 13.2915 4.84202 13.4271C4.67335 13.563 4.50374 13.6875 4.33327 13.8006C4.16269 13.9137 4.01691 14.0241 3.89601 14.1315C3.77507 14.2391 3.71468 14.338 3.71468 14.4286V14.4795H5.1903V14.4794ZM10.5345 8.85407C10.5345 8.93997 10.4915 9.00614 10.4058 9.0527C10.3199 9.09938 10.2174 9.12262 10.098 9.12262C9.97854 9.12262 9.876 9.09938 9.79022 9.0527C9.70432 9.0061 9.66151 8.93989 9.66151 8.85407V6.00579L9.49924 6.10654C9.45447 6.13646 9.40779 6.1513 9.35936 6.1513C9.28104 6.1513 9.21569 6.11591 9.1635 6.04497C9.11123 5.97415 9.08518 5.89388 9.08518 5.80431C9.08518 5.67001 9.1392 5.57122 9.24744 5.50775L9.98611 5.06005C10.0271 5.034 10.0813 5.02091 10.1484 5.02091C10.2453 5.02091 10.3339 5.04705 10.4142 5.09927C10.4944 5.15154 10.5345 5.21681 10.5345 5.29513L10.5345 8.85407ZM17.3604 14.0094C17.3604 14.4422 17.231 14.7612 16.9723 14.9663C16.7135 15.1715 16.372 15.2741 15.9476 15.2741C15.5064 15.2741 15.1736 15.1659 14.9493 14.9495C14.7249 14.7332 14.6128 14.4888 14.6128 14.2164C14.6128 14.0933 14.6428 14.0094 14.7029 13.9646C14.7629 13.9198 14.8717 13.8974 15.0293 13.8974C15.2059 13.8974 15.3252 13.9189 15.3872 13.9618C15.4491 14.0047 15.4802 14.0802 15.4802 14.1884C15.4802 14.4048 15.6453 14.5129 15.9754 14.5129C16.1647 14.5129 16.2973 14.4747 16.3734 14.3982C16.4495 14.3218 16.4875 14.1921 16.4875 14.0093V13.9029C16.4875 13.7276 16.442 13.6091 16.3511 13.5476C16.2602 13.4861 16.1276 13.4552 15.9533 13.4552C15.7872 13.4552 15.7041 13.3433 15.7041 13.1195C15.7041 12.8957 15.7873 12.7838 15.9539 12.7838C16.0167 12.7838 16.0695 12.7792 16.112 12.7699C16.1545 12.7607 16.199 12.7423 16.2452 12.7147C16.2915 12.6871 16.3266 12.6393 16.3507 12.571C16.3747 12.5029 16.3868 12.4155 16.3868 12.3086C16.3868 12.0434 16.2497 11.9107 15.9754 11.9107C15.8346 11.9107 15.7308 11.9318 15.6642 11.9739C15.5975 12.0161 15.5641 12.0884 15.5641 12.1909C15.5641 12.2933 15.5341 12.3711 15.4741 12.4242C15.414 12.4773 15.3071 12.5039 15.1533 12.5039C14.9579 12.5039 14.8329 12.4806 14.7785 12.4339C14.724 12.3873 14.6968 12.2931 14.6968 12.1513C14.6968 11.8902 14.8005 11.658 15.0081 11.4547C15.2156 11.2514 15.538 11.1497 15.9754 11.1497C16.8092 11.1497 17.2261 11.4899 17.2261 12.1704C17.2261 12.3813 17.1875 12.5699 17.1105 12.7363C17.0334 12.9028 16.9273 13.0174 16.7919 13.0803C17.1708 13.2221 17.3604 13.4963 17.3604 13.9028V14.0094H17.3604Z" fill="#424141"/>
</svg>
