<svg width="50" height="50" viewBox="0 0 50 50" fill="none" xmlns="http://www.w3.org/2000/svg">
<path d="M37.8077 14.9279H34.1477C34.1477 9.8729 30.0497 5.7699 24.9997 5.7699C19.9497 5.7699 15.8517 9.8729 15.8517 14.9279H12.1917C10.1797 14.9279 8.55174 16.5769 8.55174 18.5919L8.53174 40.5729C8.53385 41.5433 8.92 42.4734 9.60582 43.16C10.2916 43.8466 11.2213 44.2337 12.1917 44.2369H37.8067C38.7771 44.2337 39.7068 43.8466 40.3927 43.16C41.0785 42.4734 41.4646 41.5433 41.4667 40.5729V18.5929C41.4646 17.6225 41.0785 16.6924 40.3927 16.0058C39.7068 15.3192 38.7771 14.9321 37.8067 14.9289L37.8077 14.9279ZM24.9997 9.4329C25.7213 9.43224 26.4359 9.57396 27.1026 9.84994C27.7693 10.1259 28.375 10.5307 28.885 11.0412C29.395 11.5516 29.7992 12.1577 30.0746 12.8247C30.35 13.4916 30.4911 14.2063 30.4897 14.9279H19.5097C19.5084 14.2063 19.6495 13.4916 19.9249 12.8247C20.2002 12.1577 20.6045 11.5516 21.1145 11.0412C21.6245 10.5307 22.2302 10.1259 22.8969 9.84994C23.5636 9.57396 24.2782 9.43224 24.9997 9.4329ZM24.9997 27.7509C19.9497 27.7509 15.8517 23.6479 15.8517 18.5909H19.5107C19.5093 19.3125 19.6503 20.0274 19.9256 20.6945C20.2009 21.3615 20.6051 21.9677 21.1151 22.4783C21.6251 22.9888 22.2309 23.3937 22.8976 23.6698C23.5644 23.9458 24.2791 24.0876 25.0007 24.0869C25.7221 24.0873 26.4365 23.9454 27.103 23.6693C27.7695 23.3932 28.3749 22.9883 28.8847 22.4779C29.3945 21.9675 29.7986 21.3615 30.0738 20.6947C30.349 20.0279 30.4901 19.3133 30.4887 18.5919H34.1487C34.1487 23.6479 30.0497 27.7509 24.9997 27.7509Z" fill="#252525"/>
</svg>
