<svg width="20" height="19" viewBox="0 0 20 19" fill="none" xmlns="http://www.w3.org/2000/svg">
<path d="M18.2563 5.13122L11.3938 0.549972C10.9799 0.27783 10.4953 0.132813 10 0.132812C9.50465 0.132813 9.02014 0.27783 8.60625 0.549972L1.74375 5.13122C1.39944 5.35978 1.11708 5.67003 0.921867 6.03429C0.726654 6.39854 0.624664 6.80546 0.625001 7.21872V15.8687C0.625993 16.5331 0.890362 17.17 1.36016 17.6398C1.82996 18.1096 2.46686 18.374 3.13125 18.375H16.8688C17.5331 18.374 18.17 18.1096 18.6398 17.6398C19.1096 17.17 19.374 16.5331 19.375 15.8687V7.21872C19.3753 6.80546 19.2733 6.39854 19.0781 6.03429C18.8829 5.67003 18.6006 5.35978 18.2563 5.13122ZM12.8125 15.875H7.1875C6.93886 15.875 6.7004 15.7762 6.52459 15.6004C6.34877 15.4246 6.25 15.1861 6.25 14.9375C6.25 14.6888 6.34877 14.4504 6.52459 14.2746C6.7004 14.0987 6.93886 14 7.1875 14H12.8125C13.0611 14 13.2996 14.0987 13.4754 14.2746C13.6512 14.4504 13.75 14.6888 13.75 14.9375C13.75 15.1861 13.6512 15.4246 13.4754 15.6004C13.2996 15.7762 13.0611 15.875 12.8125 15.875Z" fill="#424141"/>
</svg>
